<svg width="20" height="21" viewBox="0 0 20 21" fill="none" xmlns="http://www.w3.org/2000/svg">
<path fillRule="evenodd" clipRule="evenodd" d="M10 20.0684C15.5228 20.0684 20 15.5912 20 10.0684C20 4.54551 15.5228 0.0683594 10 0.0683594C4.47715 0.0683594 0 4.54551 0 10.0684C0 15.5912 4.47715 20.0684 10 20.0684ZM7.70711 6.36125C7.31658 5.97073 6.68342 5.97073 6.29289 6.36125C5.90237 6.75178 5.90237 7.38494 6.29289 7.77547L8.58579 10.0684L6.29289 12.3613C5.90237 12.7518 5.90237 13.3849 6.29289 13.7755C6.68342 14.166 7.31658 14.166 7.70711 13.7755L10 11.4826L12.2929 13.7755C12.6834 14.166 13.3166 14.166 13.7071 13.7755C14.0976 13.3849 14.0976 12.7518 13.7071 12.3613L11.4142 10.0684L13.7071 7.77547C14.0976 7.38494 14.0976 6.75178 13.7071 6.36125C13.3166 5.97073 12.6834 5.97073 12.2929 6.36125L10 8.65415L7.70711 6.36125Z" fill="#B1B5C4"/>
</svg>
