<svg width="22" height="21" viewBox="0 0 22 21" fill="none" xmlns="http://www.w3.org/2000/svg">
<path fillRule="evenodd" clipRule="evenodd" d="M8.52226 6.93361C8.42123 7.17558 8.19343 7.3408 7.93203 7.36167L3.18276 7.74094C2.56134 7.79057 2.3099 8.56657 2.78412 8.97121L6.39855 12.0554C6.59877 12.2262 6.68623 12.4949 6.62494 12.7509L5.51997 17.3652C5.37503 17.9704 6.03288 18.4497 6.56457 18.1262L10.636 15.649C10.8595 15.5131 11.1402 15.5131 11.3637 15.649L15.4351 18.1262C15.9668 18.4497 16.6246 17.9704 16.4797 17.3652L15.3747 12.7509C15.3134 12.4949 15.4009 12.2262 15.6011 12.0554L19.2155 8.97121C19.6897 8.56657 19.4383 7.79057 18.8169 7.74094L14.0676 7.36167C13.8062 7.3408 13.5784 7.17558 13.4774 6.93361L11.6458 2.54699C11.4062 1.97327 10.5934 1.97327 10.3539 2.54699L8.52226 6.93361ZM15.0174 5.43115L13.4914 1.77638C12.5674 -0.436537 9.43226 -0.436517 8.50829 1.77638L6.98226 5.43115L3.02355 5.74729C0.626631 5.9387 -0.343218 8.93184 1.48593 10.4926L4.49443 13.0597L3.57496 16.8994C3.01591 19.234 5.55334 21.0826 7.60413 19.8348L10.9998 17.7688L14.3955 19.8348C16.4463 21.0826 18.9837 19.2339 18.4247 16.8994L17.5052 13.0597L20.5137 10.4926C22.3429 8.93183 21.373 5.9387 18.9761 5.74729L15.0174 5.43115Z" fill="#777E91"/>
</svg>
