<svg width="14" height="14" viewBox="0 0 14 14" fill="none" xmlns="http://www.w3.org/2000/svg">
<path d="M6.3879 1.12714C6.6195 0.590434 7.38051 0.590434 7.61211 1.12714L9.06547 4.49506C9.16353 4.72231 9.37943 4.87653 9.62621 4.8956L13.3533 5.1836C13.9513 5.2298 14.1889 5.98051 13.7264 6.36237L10.9235 8.67656C10.7258 8.83979 10.6392 9.10193 10.7008 9.3508L11.5634 12.8364C11.7053 13.4096 11.0869 13.8706 10.578 13.571L7.33822 11.6637C7.12949 11.5408 6.87053 11.5408 6.66179 11.6637L3.42197 13.571C2.9131 13.8706 2.29475 13.4096 2.43661 12.8364L3.29924 9.3508C3.36083 9.10193 3.27425 8.83979 3.07654 8.67656L0.273618 6.36237C-0.188888 5.98051 0.0487156 5.2298 0.646707 5.1836L4.37381 4.8956C4.62058 4.87653 4.83648 4.72231 4.93455 4.49506L6.3879 1.12714Z" fill="#FCFCFD"/>
</svg>
