<svg width="160" height="47" viewBox="0 0 160 47" fill="none" xmlns="http://www.w3.org/2000/svg">
<path d="M21.8039 18.6878L18.8259 21.3024L13.0637 17.3094L6.60505 34.0126L46.9676 0L56.5339 47L25.0223 25.6795L28.1647 23.1712L52.3012 39.8218L44.4065 8.80863L0.885864 41.9685L11.2471 11.3726L21.8039 18.6878Z" fill="url(#paint0_linear_725_2331)"/>
<path d="M68.0928 29.7313L71.6817 11.7607H71.9786L78.5007 23.0937L84.6529 11.7607H84.9622L88.5755 29.7313H84.6529L83.1878 21.7827L78.5495 30.3702H78.2726L73.2924 21.6637L71.7748 29.7313H68.0928V29.7313ZM99.7141 29.7313V12.326H110.358V15.9148H103.718V19.0618H109.406V22.6267H103.718V26.0689H110.456V29.732H99.7141V29.7313ZM125.745 29.7313V15.9645H120.252V12.326H135.339V15.9645H129.871V29.7313H125.745H125.745ZM147.93 24.2002H152.471L150.229 18.7508L147.93 24.2002ZM141.461 29.7313L150.278 11.7853H150.539L159.16 29.7313H154.843L153.749 27.1993H146.734L145.615 29.7313H141.461H141.461Z" fill="#FCFCFD"/>
<path d="M91.5526 37.8943C91.9999 37.8943 92.3893 37.9647 92.7207 38.1048C93.0522 38.2448 93.3792 38.4642 93.7019 38.7615L93.1057 39.4759C92.8659 39.2636 92.6273 39.1062 92.3912 39.0039C92.155 38.9022 91.8965 38.8511 91.6149 38.8511C90.9689 38.8511 90.4555 39.1337 90.0742 39.6991C89.693 40.2644 89.503 41.1764 89.503 42.4349C89.503 43.659 89.6936 44.5626 90.0742 45.1446C90.4549 45.7272 90.9689 46.0181 91.6149 46.0181C91.9382 46.0181 92.2155 45.9587 92.4472 45.8397C92.679 45.7208 92.9319 45.5462 93.2054 45.3166L93.7892 46.0181C93.168 46.673 92.4223 46.9998 91.5526 46.9998C90.9147 46.9998 90.3496 46.8297 89.8568 46.4895C89.364 46.1499 88.979 45.637 88.7018 44.9527C88.4239 44.2684 88.2856 43.4287 88.2856 42.4337C88.2856 41.4475 88.4283 40.6142 88.7142 39.9338C89.0002 39.2533 89.3889 38.7436 89.8823 38.4034C90.3751 38.0638 90.9321 37.8931 91.5532 37.8931L91.5526 37.8943ZM106.268 38.06V46.8342H105.113V38.06H106.268ZM123.082 38.06L122.946 39.0288H120.847V46.8342H119.691V39.0288H117.529V38.06H123.082V38.06ZM139.363 38.06L136.902 43.4543V46.8342H135.735V43.4671L133.275 38.0593H134.518L136.344 42.4465L138.157 38.0593H139.363V38.06Z" fill="#FCFCFD"/>
<defs>
<linearGradient id="paint0_linear_725_2331" x1="51.6315" y1="7.03673" x2="3.08497" y2="36.2901" gradientUnits="userSpaceOnUse">
<stop stop-color="#F72585"/>
<stop offset="1" stop-color="#480CA8"/>
</linearGradient>
</defs>
</svg>
