<svg width="110" height="113" viewBox="0 0 110 113" fill="none" xmlns="http://www.w3.org/2000/svg">
<path d="M46.2908 22.3951L42.722 25.5284L35.8168 20.7433L28.0768 40.7601L76.4466 0L87.9106 56.3239L50.1477 30.7738L53.9135 27.768L82.8382 47.7218L73.3773 10.5561L21.223 50.2942L33.6397 13.6287L46.2908 22.3951Z" fill="url(#paint0_linear_725_2336)"/>
<path d="M0 91.7116L4.30086 70.176H4.65665L12.4727 83.7572L19.8453 70.176H20.216L24.5461 91.7116H19.8453L18.0896 82.1861L12.5311 92.4772H12.1993L6.23109 82.0436L4.41247 91.7116H0ZM37.8944 91.7116V70.8534H50.6502V75.1541H42.6926V78.9254H49.5094V83.1976H42.6926V87.3226H50.767V91.7124H37.8944V91.7116ZM69.0888 91.7116V75.2137H62.5064V70.8534H80.587V75.2137H74.0338V91.7116H69.0895H69.0888ZM95.6759 85.0832H101.118L98.4309 78.5528L95.6759 85.0832ZM87.9229 91.7116L98.4893 70.2055H98.8016L109.134 91.7116H103.96L102.649 88.6772H94.2424L92.9016 91.7116H87.9236H87.9229Z" fill="white"/>
<path d="M28.114 101.494C28.6501 101.494 29.1167 101.578 29.5139 101.746C29.911 101.914 30.303 102.177 30.6897 102.533L29.9752 103.389C29.6878 103.135 29.4019 102.946 29.1189 102.824C28.836 102.702 28.5261 102.64 28.1887 102.64C27.4145 102.64 26.7993 102.979 26.3424 103.657C25.8855 104.334 25.6577 105.427 25.6577 106.935C25.6577 108.402 25.8862 109.485 26.3424 110.183C26.7985 110.881 27.4145 111.229 28.1887 111.229C28.5761 111.229 28.9084 111.158 29.1861 111.016C29.4638 110.873 29.767 110.664 30.0947 110.389L30.7943 111.229C30.0499 112.014 29.1562 112.406 28.114 112.406C27.3495 112.406 26.6724 112.202 26.0818 111.794C25.4913 111.387 25.0299 110.773 24.6976 109.953C24.3647 109.133 24.1989 108.126 24.1989 106.934C24.1989 105.752 24.3699 104.753 24.7126 103.938C25.0552 103.123 25.5211 102.512 26.1124 102.104C26.703 101.697 27.3704 101.492 28.1148 101.492L28.114 101.494ZM45.7484 101.692V112.207H44.3642V101.692H45.7484ZM65.8988 101.692L65.7353 102.854H63.2193V112.207H61.8344V102.854H59.2437V101.692H65.8988ZM85.4086 101.692L82.4603 108.157V112.207H81.0612V108.172L78.1137 101.692H79.6024L81.7906 106.949L83.964 101.692H85.4086V101.692Z" fill="white"/>
<defs>
<linearGradient id="paint0_linear_725_2336" x1="82.0357" y1="8.43268" x2="23.8584" y2="43.4893" gradientUnits="userSpaceOnUse">
<stop stop-color="#F72585"/>
<stop offset="1" stop-color="#480CA8"/>
</linearGradient>
</defs>
</svg>
