<svg width="160" height="48" viewBox="0 0 160 48" fill="none" xmlns="http://www.w3.org/2000/svg">
<path d="M21.7998 19.1878L18.8219 21.8024L13.0597 17.8094L6.60102 34.5126L46.9636 0.5L56.5298 47.5L25.0183 26.1795L28.1607 23.6712L52.2971 40.3218L44.4024 9.30863L0.881836 42.4685L11.243 11.8726L21.7998 19.1878Z" fill="url(#paint0_linear_2550_743)"/>
<path d="M68.0967 30.2314L71.6856 12.2609H71.9825L78.5046 23.5938L84.6567 12.2609H84.9661L88.5794 30.2314H84.6567L83.1917 22.2828L78.5534 30.8703H78.2765L73.2963 22.1638L71.7787 30.2314H68.0967V30.2314ZM99.718 30.2314V12.8261H110.362V16.4149H103.722V19.5619H109.41V23.1268H103.722V26.569H110.46V30.2321H99.718V30.2314ZM125.748 30.2314V16.4646H120.256V12.8261H135.343V16.4646H129.875V30.2314H125.749H125.748ZM147.934 24.7003H152.475L150.233 19.251L147.934 24.7003ZM141.465 30.2314L150.282 12.2854H150.543L159.164 30.2314H154.847L153.753 27.6994H146.738L145.619 30.2314H141.465H141.465Z" fill="#FCFCFD"/>
<path d="M91.5565 38.3946C92.0039 38.3946 92.3932 38.4649 92.7247 38.605C93.0561 38.745 93.3832 38.9644 93.7059 39.2618L93.1097 39.9761C92.8698 39.7638 92.6312 39.6065 92.3951 39.5042C92.159 39.4025 91.9004 39.3513 91.6188 39.3513C90.9728 39.3513 90.4594 39.634 90.0782 40.1993C89.6969 40.7647 89.5069 41.6766 89.5069 42.9352C89.5069 44.1592 89.6975 45.0629 90.0782 45.6448C90.4588 46.2274 90.9728 46.5184 91.6188 46.5184C91.9422 46.5184 92.2194 46.4589 92.4512 46.34C92.6829 46.221 92.9359 46.0464 93.2093 45.8169L93.7931 46.5184C93.172 47.1733 92.4262 47.5001 91.5565 47.5001C90.9186 47.5001 90.3535 47.3299 89.8607 46.9897C89.368 46.6501 88.9829 46.1373 88.7057 45.453C88.4279 44.7687 88.2896 43.929 88.2896 42.9339C88.2896 41.9478 88.4322 41.1145 88.7182 40.434C89.0041 39.7536 89.3929 39.2439 89.8863 38.9036C90.3791 38.5641 90.936 38.3933 91.5572 38.3933L91.5565 38.3946ZM106.272 38.5602V47.3344H105.117V38.5602H106.272ZM123.086 38.5602L122.95 39.5291H120.85V47.3344H119.695V39.5291H117.533V38.5602H123.086V38.5602ZM139.367 38.5602L136.906 43.9546V47.3344H135.739V43.9674L133.279 38.5596H134.521L136.347 42.9467L138.161 38.5596H139.367V38.5602Z" fill="#FCFCFD"/>
<defs>
<linearGradient id="paint0_linear_2550_743" x1="51.6275" y1="7.53673" x2="3.08095" y2="36.7901" gradientUnits="userSpaceOnUse">
<stop stop-color="#F72585"/>
<stop offset="1" stop-color="#480CA8"/>
</linearGradient>
</defs>
</svg>
