<svg width="160" height="44" viewBox="0 0 160 48" fill="none" xmlns="http://www.w3.org/2000/svg">
<path d="M21.8178 18.7009L18.8377 21.3174L13.0715 17.3216L6.60825 34.0365L46.9992 0L56.5722 47.0331L25.0385 25.6976L28.1831 23.1875L52.3365 39.8499L44.4363 8.81483L0.88504 41.998L11.2535 11.3806L21.8178 18.7009Z" fill="url(#paint0_linear_725_2315)"/>
<path d="M68.1393 29.7523L71.7307 11.769H72.0278L78.5546 23.11L84.711 11.769H85.0206L88.6364 29.7523H84.711L83.2449 21.798L78.6034 30.3916H78.3263L73.3426 21.679L71.8239 29.7523H68.1393V29.7523ZM99.7829 29.7523V12.3347H110.435V15.926H103.79V19.0752H109.482V22.6426H103.79V26.0872H110.532V29.7529H99.7829V29.7523ZM125.832 29.7523V15.9758H120.335V12.3347H135.433V15.9758H129.961V29.7523H125.832H125.832ZM148.033 24.2172H152.577L150.334 18.7641L148.033 24.2172ZM141.559 29.7523L150.382 11.7936H150.643L159.271 29.7523H154.951L153.856 27.2184H146.836L145.716 29.7523H141.56H141.559Z" fill="#283D64"/>
<path d="M91.6157 37.9212C92.0633 37.9212 92.453 37.9916 92.7846 38.1318C93.1163 38.2719 93.4436 38.4914 93.7665 38.789L93.1699 39.5038C92.9299 39.2914 92.6911 39.134 92.4548 39.0316C92.2186 38.9298 91.9598 38.8786 91.678 38.8786C91.0315 38.8786 90.5178 39.1615 90.1363 39.7272C89.7547 40.2929 89.5646 41.2055 89.5646 42.465C89.5646 43.6899 89.7554 44.5942 90.1363 45.1765C90.5172 45.7596 91.0315 46.0507 91.678 46.0507C92.0016 46.0507 92.279 45.9912 92.511 45.8722C92.7429 45.7531 92.996 45.5784 93.2697 45.3487L93.8538 46.0507C93.2323 46.706 92.486 47.0331 91.6157 47.0331C90.9773 47.0331 90.4118 46.8628 89.9187 46.5224C89.4256 46.1826 89.0403 45.6693 88.7629 44.9846C88.4848 44.2998 88.3464 43.4595 88.3464 42.4637C88.3464 41.4769 88.4892 40.643 88.7753 39.9621C89.0615 39.2811 89.4505 38.7711 89.9443 38.4306C90.4374 38.0908 90.9948 37.9199 91.6163 37.9199L91.6157 37.9212ZM106.341 38.0869V46.8673H105.185V38.0869H106.341ZM123.168 38.0869L123.031 39.0565H120.93V46.8673H119.774V39.0565H117.61V38.0869H123.168V38.0869ZM139.459 38.0869L136.997 43.4851V46.8673H135.829V43.4979L133.368 38.0863H134.611L136.438 42.4765L138.253 38.0863H139.459V38.0869Z" fill="#283D64"/>
<defs>
<linearGradient id="paint0_linear_725_2315" x1="51.6664" y1="7.04168" x2="3.0857" y2="36.3156" gradientUnits="userSpaceOnUse">
<stop stop-color="#F72585"/>
<stop offset="1" stop-color="#480CA8"/>
</linearGradient>
</defs>
</svg>
