<svg width="109" height="113" viewBox="0 0 109 113" fill="none" xmlns="http://www.w3.org/2000/svg">
<path d="M46.1185 22.3117L42.563 25.4334L35.6834 20.6661L27.9722 40.6084L76.1621 0L87.5834 56.1144L49.961 30.6593L53.7129 27.6647L82.5299 47.5442L73.1042 10.5168L21.144 50.1071L33.5144 13.578L46.1185 22.3117Z" fill="url(#paint0_linear_725_2326)"/>
<path d="M0 91.3703L4.28486 69.9148H4.63932L12.4263 83.4455L19.7714 69.9148H20.1408L24.4548 91.3703H19.7714L18.0223 81.8802L12.4845 92.133H12.1539L6.2079 81.7382L4.39605 91.3703H0ZM37.7534 91.3703V70.5896H50.4617V74.8744H42.5338V78.6316H49.3252V82.8879H42.5338V86.9976H50.5781V91.371H37.7534V91.3703ZM68.8317 91.3703V74.9338H62.2738V70.5896H80.2872V74.9338H73.7584V91.3703H68.8325H68.8317ZM95.32 84.7665H100.741L98.0647 78.2604L95.32 84.7665ZM87.5958 91.3703L98.1228 69.9441H98.434L108.728 91.3703H103.573L102.267 88.3472H93.8917L92.5559 91.3703H87.5965H87.5958Z" fill="#283D64"/>
<path d="M28.0093 101.116C28.5434 101.116 29.0083 101.2 29.404 101.367C29.7997 101.535 30.1902 101.797 30.5755 102.152L29.8636 103.004C29.5773 102.751 29.2924 102.563 29.0105 102.441C28.7286 102.32 28.4199 102.259 28.0837 102.259C27.3124 102.259 26.6995 102.596 26.2443 103.271C25.7891 103.946 25.5622 105.035 25.5622 106.537C25.5622 107.999 25.7898 109.078 26.2443 109.772C26.6987 110.468 27.3124 110.815 28.0837 110.815C28.4697 110.815 28.8007 110.744 29.0774 110.602C29.3541 110.46 29.6561 110.252 29.9827 109.978L30.6796 110.815C29.938 111.597 29.0477 111.988 28.0093 111.988C27.2477 111.988 26.573 111.784 25.9847 111.378C25.3963 110.973 24.9366 110.36 24.6057 109.543C24.2739 108.726 24.1088 107.724 24.1088 106.536C24.1088 105.358 24.2791 104.364 24.6205 103.551C24.9619 102.739 25.4261 102.13 26.0152 101.724C26.6035 101.319 27.2685 101.115 28.0101 101.115L28.0093 101.116ZM45.5781 101.314V111.79H44.1991V101.314H45.5781ZM65.6535 101.314L65.4906 102.471H62.984V111.79H61.6042V102.471H59.0232V101.314H65.6535ZM85.0908 101.314L82.1534 107.754V111.79H80.7596V107.77L77.823 101.313H79.3062L81.4863 106.551L83.6515 101.313H85.0908V101.314Z" fill="#283D64"/>
<defs>
<linearGradient id="paint0_linear_725_2326" x1="81.7304" y1="8.40131" x2="23.7695" y2="43.3275" gradientUnits="userSpaceOnUse">
<stop stop-color="#F72585"/>
<stop offset="1" stop-color="#480CA8"/>
</linearGradient>
</defs>
</svg>
