<svg width="24" height="24" viewBox="0 0 24 25" fill="none" xmlns="http://www.w3.org/2000/svg">
<path fillRule="evenodd" clipRule="evenodd" d="M12 4.06836C10.0478 4.06836 8.24816 4.22936 6.80371 4.42013C5.50372 4.59182 4.52346 5.57208 4.35177 6.87207C4.16101 8.31652 4 10.1161 4 12.0684C4 14.0206 4.161 15.8202 4.35177 17.2647C4.52346 18.5646 5.50372 19.5449 6.80371 19.7166C8.24816 19.9074 10.0478 20.0684 12 20.0684C13.9522 20.0684 15.7518 19.9074 17.1963 19.7166C18.4963 19.5449 19.4765 18.5646 19.6482 17.2647C19.839 15.8202 20 14.0206 20 12.0684C20 10.1161 19.839 8.31652 19.6482 6.87207C19.4765 5.57208 18.4963 4.59182 17.1963 4.42013C15.7518 4.22936 13.9522 4.06836 12 4.06836ZM6.54184 2.43735C4.34504 2.72748 2.65912 4.4134 2.36899 6.6102C2.16953 8.12044 2 10.0096 2 12.0684C2 14.1271 2.16953 16.0163 2.36899 17.5265C2.65912 19.7233 4.34504 21.4092 6.54184 21.6994C8.05208 21.8988 9.94127 22.0684 12 22.0684C14.0587 22.0684 15.9479 21.8988 17.4582 21.6994C19.655 21.4092 21.3409 19.7233 21.631 17.5265C21.8305 16.0163 22 14.1271 22 12.0684C22 10.0096 21.8305 8.12044 21.631 6.6102C21.3409 4.4134 19.655 2.72748 17.4582 2.43735C15.9479 2.23789 14.0587 2.06836 12 2.06836C9.94127 2.06836 8.05208 2.23789 6.54184 2.43735Z" fill="#777E91"/>
<path d="M8 13.0684C7.44772 13.0684 7 12.6206 7 12.0684C7 11.5161 7.44772 11.0684 8 11.0684H16C16.5523 11.0684 17 11.5161 17 12.0684C17 12.6206 16.5523 13.0684 16 13.0684H8Z" fill="#777E91"/>
</svg>
